<?xml version="1.0" encoding="UTF-8"?>
<svg version="1.1" xmlns="http://www.w3.org/2000/svg" width="133" height="133">
<path d="M0 0 C43.89 0 87.78 0 133 0 C133 43.89 133 87.78 133 133 C89.11 133 45.22 133 0 133 C0 89.11 0 45.22 0 0 Z " fill="#010101" transform="translate(0,0)"/>
<path d="M0 0 C5.63238946 1.59568538 8.91157419 4.47897224 12.08984375 9.31640625 C14.23160581 13.27820646 14.35720141 16.57070248 14 21 C12.09910424 27.34356072 9.46068091 31.28208959 4 35 C-1.63136251 36.87712084 -8.64396372 37.2361304 -14.26953125 35.1640625 C-18.7691002 32.24277373 -21.56523682 28.14267524 -23 23 C-23.46510474 18.14297761 -23.55024584 13.65073753 -22 9 C-23.32 8.34 -24.64 7.68 -26 7 C-25.34 5.35 -24.68 3.7 -24 2 C-22.783125 2.226875 -21.56625 2.45375 -20.3125 2.6875 C-16.81632402 3.16402445 -16.81632402 3.16402445 -13.6875 1.5625 C-9.3215769 -0.97582738 -4.92088497 -0.60734625 0 0 Z " fill="#F6F6F6" transform="translate(50,65)"/>
<path d="M0 0 C5.0410931 2.25117516 8.0616753 5.52325319 10.671875 10.3515625 C12.75041915 16.58719495 11.71410415 21.4997074 8.94921875 27.265625 C6.43638816 31.36914651 3.26766382 33.81963289 -1.328125 35.3515625 C-13.5319742 36.50598067 -13.5319742 36.50598067 -18.390625 33.3515625 C-22.66730981 29.54297254 -24.92683053 25.26405023 -25.70703125 19.6015625 C-25.95670215 13.67389209 -25.4430116 9.89959506 -21.328125 5.3515625 C-14.84187459 -0.72102398 -8.79685233 -2.45013001 0 0 Z " fill="#F6F6F6" transform="translate(92.328125,65.6484375)"/>
<path d="M0 0 C4.6 2.2 4.6 2.2 6 5 C6.68571429 11.97142857 6.68571429 11.97142857 4 16 C-0.15562097 18.77041398 -2.06667872 18.70476018 -7 18 C-9.43119623 16.12984906 -10.64069173 14.71861655 -12 12 C-12.49055907 7.66672826 -12.47744439 5.67999656 -9.9375 2.0625 C-6.25315134 -0.5243831 -4.42058395 -0.63151199 0 0 Z " fill="#060606" transform="translate(48,74)"/>
<path d="M0 0 C3.5985297 0.57833513 5.62270249 1.36221367 8.5 3.5625 C10.11588379 6.79426757 10.07451407 10.06865283 9.5 13.5625 C7.50413103 16.55630345 6.11740829 18.20058488 2.52734375 19.00390625 C-1.03954757 19.21058593 -3.09825998 18.87153079 -5.9375 16.6875 C-8.54432356 13.14221996 -9.00992194 10.98182351 -8.5 6.5625 C-6.00629406 2.48189029 -4.79703202 0.77095157 0 0 Z " fill="#050505" transform="translate(84.5,73.4375)"/>
<path d="M0 0 C1.98 0 3.96 0 6 0 C6.98188561 2.58232914 7.96059589 5.16578683 8.9375 7.75 C9.21529297 8.47960938 9.49308594 9.20921875 9.77929688 9.9609375 C10.04677734 10.66992188 10.31425781 11.37890625 10.58984375 12.109375 C10.83597412 12.75874023 11.08210449 13.40810547 11.33569336 14.07714844 C12.01125435 16.032576 12.52800046 17.98665757 13 20 C11.35 19.67 9.7 19.34 8 19 C8 18.34 8 17.68 8 17 C6.5199159 17.11362262 5.04089926 17.24122908 3.5625 17.375 C2.73878906 17.44460937 1.91507813 17.51421875 1.06640625 17.5859375 C0.38449219 17.72257812 -0.29742187 17.85921875 -1 18 C-1.33 18.66 -1.66 19.32 -2 20 C-3.32 20 -4.64 20 -6 20 C-5.36757331 15.27497299 -4.08186437 11.09429803 -2.4375 6.625 C-2.20353516 5.98433594 -1.96957031 5.34367187 -1.72851562 4.68359375 C-1.15700381 3.1206839 -0.57915771 1.56009273 0 0 Z " fill="#EBEBEB" transform="translate(50,40)"/>
<path d="M0 0 C4.29 0 8.58 0 13 0 C13 1.65 13 3.3 13 5 C10.03 5 7.06 5 4 5 C4 6.32 4 7.64 4 9 C6.64 9 9.28 9 12 9 C12 10.32 12 11.64 12 13 C9.36 13 6.72 13 4 13 C4 14.32 4 15.64 4 17 C6.97 17 9.94 17 13 17 C13 18.65 13 20.3 13 22 C8.71 22 4.42 22 0 22 C0 14.74 0 7.48 0 0 Z " fill="#D6D6D6" transform="translate(90,39)"/>
<path d="M0 0 C1.65 0 3.3 0 5 0 C5.33 1.98 5.66 3.96 6 6 C6.721875 5.01 7.44375 4.02 8.1875 3 C9.41796875 1.3125 9.41796875 1.3125 11 0 C12.65 0 14.3 0 16 0 C13.03 4.455 13.03 4.455 10 9 C11.44755587 11.89511173 12.90314017 14.53127396 14.625 17.25 C15.07101563 17.95640625 15.51703125 18.6628125 15.9765625 19.390625 C16.31429687 19.92171875 16.65203125 20.4528125 17 21 C14.70703125 21.25 14.70703125 21.25 12 21 C10.19921875 19.25 10.19921875 19.25 8.6875 17 C8.17574219 16.2575 7.66398437 15.515 7.13671875 14.75 C6.76160156 14.1725 6.38648437 13.595 6 13 C5.67 15.64 5.34 18.28 5 21 C3.35 21 1.7 21 0 21 C0 14.07 0 7.14 0 0 Z " fill="#DBDBDB" transform="translate(107,73)"/>
<path d="M0 0 C1.17369141 0.10054687 1.17369141 0.10054687 2.37109375 0.203125 C4.95262962 0.84735855 5.95243756 1.65847194 7.5625 3.75 C7.5625 4.41 7.5625 5.07 7.5625 5.75 C6.5725 6.08 5.5825 6.41 4.5625 6.75 C3.5725 6.09 2.5825 5.43 1.5625 4.75 C-2.04617549 4.90827178 -2.04617549 4.90827178 -5.4375 5.75 C-6.83685013 8.54870027 -6.69015405 10.65498792 -6.4375 13.75 C-5.50152685 15.76951062 -5.50152685 15.76951062 -3.4375 16.75 C0.18785976 17.0003577 0.18785976 17.0003577 3.5625 16.75 C3.5625 16.09 3.5625 15.43 3.5625 14.75 C4.8825 15.08 6.2025 15.41 7.5625 15.75 C6.19266497 18.91115776 5.5734362 19.7427092 2.5625 21.75 C-0.74321478 22.18660384 -3.25169387 22.46042728 -6.19140625 20.69921875 C-8.37554138 18.91506981 -10.16659383 17.29181233 -11.4375 14.75 C-12.11878376 7.93716238 -12.11878376 7.93716238 -10.390625 4.92578125 C-7.02375056 0.83601906 -5.1719977 -0.50955642 0 0 Z " fill="#EEEEEE" transform="translate(78.4375,39.25)"/>
<path d="M0 0 C4.29 0 8.58 0 13 0 C13 1.32 13 2.64 13 4 C10.03 4 7.06 4 4 4 C4 5.32 4 6.64 4 8 C6.64 8 9.28 8 12 8 C12 9.32 12 10.64 12 12 C9.36 12 6.72 12 4 12 C4 14.64 4 17.28 4 20 C2.68 20 1.36 20 0 20 C0 13.4 0 6.8 0 0 Z " fill="#EBEBEB" transform="translate(27,40)"/>
<path d="M0 0 C1.32 0 2.64 0 4 0 C4 5.61 4 11.22 4 17 C6.64 17 9.28 17 12 17 C12 17.99 12 18.98 12 20 C8.04 20 4.08 20 0 20 C0 13.4 0 6.8 0 0 Z " fill="#F7F7F7" transform="translate(11,73)"/>
<path d="M0 0 C2.35953094 2.35953094 2.49141413 3.77895617 3 7 C1.35 7 -0.3 7 -2 7 C-1.125 1.125 -1.125 1.125 0 0 Z " fill="#1A1A1A" transform="translate(53,46)"/>
</svg>
